<svg xmlns="http://www.w3.org/2000/svg" viewBox="0 0 128 128" width="128" height="128" aria-label="Quiz Lernmodus Icon">
  <!-- Background circle -->
  <circle cx="64" cy="64" r="60" fill="#EEF2FF"/>

  <!-- Book -->
  <path d="M30 32c0-4 3-6 7-6h42c6 0 11 3 11 8v56c0-4-5-7-11-7H37c-4 0-7 2-7 6V32z"
        fill="#4F46E5"/>
  <path d="M30 32c0-4 3-6 7-6h42c6 0 11 3 11 8v56c0-4-5-7-11-7H37c-4 0-7 2-7 6V32z"
        fill="#6366F1" transform="translate(8,4)"/>

  <!-- Multiple choice boxes -->
  <rect x="42" y="46" width="10" height="10" rx="2" fill="#FFFFFF"/>
  <rect x="42" y="62" width="10" height="10" rx="2" fill="#FFFFFF"/>
  <path d="M44 67l3 3 6-7" stroke="#22C55E" stroke-width="3" fill="none" stroke-linecap="round" stroke-linejoin="round"/>

  <!-- Lines next to boxes -->
  <rect x="58" y="49" width="26" height="4" rx="2" fill="#E0E7FF"/>
  <rect x="58" y="65" width="20" height="4" rx="2" fill="#E0E7FF"/>

  <!-- Quiz question mark badge -->
  <circle cx="92" cy="36" r="16" fill="#F59E0B"/>
  <path d="M88 32c0-3 3-5 6-5 3 0 6 2 6 5 0 4-6 4-6 8" stroke="#FFFFFF" stroke-width="3" fill="none" stroke-linecap="round"/>
  <circle cx="94" cy="44" r="2" fill="#FFFFFF"/>
</svg>
